<svg xmlns="http://www.w3.org/2000/svg" viewBox="0 0 64 64" fill="none">
  <circle cx="32" cy="32" r="29" stroke="#B88B45" stroke-width="1.5"/>
  <path d="M32 8 36 22 32 26 28 22 32 8Z" fill="#B88B45"/>
  <path d="M11 32c5.3 0 5.3-5 10.6-5s5.3 5 10.7 5 5.3-5 10.6-5 5.3 5 10.7 5" stroke="#17372A" stroke-width="3" stroke-linecap="round"/>
  <path d="M11 40c5.3 0 5.3-5 10.6-5s5.3 5 10.7 5 5.3-5 10.6-5 5.3 5 10.7 5" stroke="#A6533B" stroke-width="2.5" stroke-linecap="round"/>
  <path d="M14 47c4.5 0 4.5-3.5 9-3.5s4.5 3.5 9 3.5 4.5-3.5 9-3.5 4.5 3.5 9 3.5" stroke="#B88B45" stroke-width="2" stroke-linecap="round"/>
</svg>
